<svg xmlns="http://www.w3.org/2000/svg" viewBox="0 90 100 160"><path fill="#FEF9EF" d="M68.998 122.234c.009-.021-.168-.361-.225-.502-.065-.16-.06-.568-.04-.658.024-.111-.018-.115-.061-.24-.015-.043.032-.314.022-.447-.005-.059-.228-.504-.245-.594-.017-.086.014-.297 0-.445a.88.88 0 0 0-.056-.223l-.936-2.83-.392-1.264c-.033-.105-.642-1.098-.678-1.209-.667-2.023-2.757-5.393-4.892-6.738-.07-.045-.649-.748-.742-.816-.122-.092-.484-.256-.539-.309-.163-.154-.284-.441-.539-.379a.218.218 0 0 0-.13.09c-.054.068-.684 1.645-.791 1.838-.114.203-.264.41-.323.545a4.027 4.027 0 0 0-.189.725c-.618 2.488-5.27 10.438-6.451 12.664l-4.413 8.311c-.811 1.289-.726-.037-1.014-.168-.394-.176-.309.127-.535.291-.279.199-.966.332-1.248.322-.042-.002-.506.252-.631.289-.146.043-.273.014-.283-.145-.003-.068.054-.26.067-.367.011-.094-.022-.156-.089-.223-.095-.096-.131-.035-.312.055-.171.086-.19.014-.312-.156-.132-.182-1.6-.516-1.761-.445-.212.094-.588.447-.747.234-.062-.082-.038-.293-.067-.445a.29.29 0 0 0-.252-.246c-.251-.012-.457.107-.505 0-.08-.172 0-.27-.1-.344-.048-.035-.376-.121-.424-.156-.129-.096-.126-.223-.268-.289a.23.23 0 0 0-.089-.023c-.318-.027-.483.066-.644-.025-.185-.105-.298-.35-.37-.631-.056-.221-.105-.775-.133-.824-.021-.035-.08-.059-.123-.068-.104-.018-.318.078-.424.123-.185.078-5.714 3.178-5.883 3.297-.589.42-.799.635-.869 1.305-.193 1.859.733 7.295 3.298 8.008.342.096.553.006.869-.133l25.404-12.432c.861-.43 8.271-3.92 8.468-3.988.103-.036.584-.307.597-.335zm-44.828-5.603c.009-.002.001.02-.009.033-.019.027-.053.041-.084.049-.1.027-14.394 7.607-15.568 8.199L3.78 127.58c-.56.322-.891.852-.936 1.494-.126 1.947 1.034 4.641 2.262 6.291.335.451 1.102 1.443 1.75 1.615.335.09.599 0 .892-.088.148-.047 14.723-6.875 16.568-7.766 4.766-2.096 8.797-3.85 13.583-5.902.252-.105.322-.148.379-.367.07-.273.154-.848.211-1.014.047-.139.229-.461.357-.713.102-.203.465-1.266.712-1.85.085-.201.175-.383.246-.58.114-.318.221-.857.323-1.135l5.192-12.955 2.519-6.115c.379-1.201.334-1.529 1.014-2.674.106-.179.919-2.742.947-2.941.051-.358.388-.784.037-.868-.159-.038-.484.051-.661.111-.47.174-.86.336-1.315.546-13.751 6.384-25.188 12.152-38.497 19.416-.922.52-1.69.975-2.588 1.537a1.79 1.79 0 0 0-.921 1.701c.172 2.314.729 4.246 1.816 6.295.387.684.888.619 1.682.414.173-.047 3.821-1.492 5.059-2.006l9.549-3.354a1.2 1.2 0 0 1 .21-.041zm49.94-16.02c-.043.174.43.635.54.742.328.318.842.768.983.932 1.371 1.648 2.292 3.244 3.032 5.256.007.021 15.168-.244 15.265-.268 7.403-2.527 13.743-4.4 21.329-6.305.332-.121.555-.195.67-.469 1.068-2.541-.08-7.566-1.428-9.757-.389-.634-.834-.628-1.615-.446-1.48.347-10.738 2.327-13.08 2.863-8.334 1.979-15.304 3.93-23.456 6.561-.568.18-2.192.7-2.24.891zM61.006 88.018c-.062.164.073.303.156.375.125.11 2.244 1.458 2.44 1.615.144.114.257.22.379.356.625.699.634.909 1.192 1.314.604.439.337.245.902.865.182.199 1.047.942 1.204 1.118.224.251.241.299.49.446.08.048 3.879 3.811 3.944 3.899.305.412.683 1.184 1.134 1.137.065-.008 9.554-4.624 10.075-4.902a394.413 394.413 0 0 1 6.853-3.197c3.862-1.707 11.154-4.994 11.9-5.302.686-.283 1.047-.487 1.002-1.166-.123-1.944-2.426-7.72-4.344-8.871-.471-.282-.973-.092-1.561.078-4.973 1.436-35.321 11.049-35.766 12.235zm30.953-16.297l.379-1.077a.32.32 0 0 0 .025-.085c.027-.238-.11-.229-.214-.379-.084-.121-.099-.629-.111-.668a.392.392 0 0 0-.089-.156c-.19-.226-.48-.432-.557-.601-.031-.067-.104-1.071-.134-1.136-.032-.069-.159-.206-.239-.316a.365.365 0 0 1-.05-.085c-.041-.096-.074-.364-.099-.396-.031-.039-.143-.081-.168-.117-.019-.025-.032-.122-.027-.191.018-.243.059-.361-.084-.499-.228-.219-.342-.182-.423-.446-.156-.502-.988-.755-1.572-.668-.107.016-.728.285-.958.345a3.778 3.778 0 0 1-.655.056c-.623-.021-.627-.026-1.351.278-.168.071-5.371 1.549-6.195 1.76-21.757 6.264-39.542 13.679-59.304 24.724-.316.193-.919.55-1.145.84-.227.292-.272.514-.479.657-.074.051-.327.139-.513.223-.074.033-.665.512-.702.568-.048.073-.125.275-.022.423.026.038.078.063.123.078.085.029.185.035.267.067.095.037.187.111.268.134.238.068.276-.007.39.145.075.1.239.574.368.657.127.082.307.078.368.167a.201.201 0 0 1 .022.044c.036.085.205 1.239.205 1.394 0 .105-.062.732.096.846.135.096.472.018.624-.023.64-.17.606-.43 1.382-.957l1.917-1.08c.115-.076.384-.174.423-.213a.95.95 0 0 0 .111-.155c.125-.177.301-.226.58-.312.252-.077.263-.005.535.201.56.425 1.018.726 1.671.245.292-.185.547-.328.858-.479 20.41-9.682 38.514-16.071 60.48-21.342.4-.075 3.72-.882 3.8-.924.478-.253.354-.79.195-1.417-.016-.06-.015-.073.004-.13zm-42.897-7.778c0 1.853.781 5.227 2.562 6.438.202.138.432.208.546.379.167.25.101.326.323.39.343.098.384-.005 1.012.011.096.003.531.072.66.045.213-.045.339-.169.512-.056.107.07.077.112.145.234.112.2.704.171.867.155.615-.059 1.142-.216 1.44-.713.088-.146.457-.752.893-.942.231-.101.275-.059.374-.143.201-.172.426-.639.501-.744.065-.093.555-.525.85-.8 1.46-1.363 3.423-5.59 2.975-7.958-.096-.507-.465-2.182-.747-2.602-.12-.18-.333-.359-.401-.557-.02-.058-.027-.118-.045-.178-.272-.966-1.992-3.089-2.966-3.097-.1-.001-.188.015-.276 0-.083-.014-.409-.179-.512-.201-.101-.021-.552.001-.646.056-.37.201-.705.332-1.114.434-.188.046-.26.028-.396.13-.126.093-.244.246-.36.33-.066.047-.383.155-.582.242-1.753.769-3.751 3.115-4.401 4.823-.224.591-1.214 3.753-1.214 4.324z"/></svg>